<svg xmlns="http://www.w3.org/2000/svg" xmlns:xlink="http://www.w3.org/1999/xlink" viewBox="0 0 214.15 269.24"><defs><style>.cls-1{fill:#4f1a48;}.cls-2{fill:#ea6526;}.cls-3{fill:url(#radial-gradient);}.cls-4{fill:#fff;}</style><radialGradient id="radial-gradient" cx="236.78" cy="1998.67" r="1" gradientTransform="matrix(96.6, 24.73, 24.73, -96.6, -72186.04, 187314.99)" gradientUnits="userSpaceOnUse"><stop offset="0" stop-color="#fff5a8"/><stop offset="0.72" stop-color="#fff5a8"/><stop offset="1" stop-color="#fff5a8"/></radialGradient></defs><g id="Layer_2" data-name="Layer 2"><g id="Layer_1-2" data-name="Layer 1"><polygon class="cls-1" points="106.8 247.3 62.03 267.16 62.03 159.55 151.56 159.55 151.56 267.16 106.8 247.3"/><polygon class="cls-2" points="70.96 158.2 60.68 158.2 60.68 269.24 70.96 264.68 70.96 158.2"/><polygon class="cls-2" points="142.64 158.2 142.64 264.68 152.92 269.24 152.92 158.2 142.64 158.2"/><path class="cls-2" d="M210,136.5A107,107,0,1,1,136.5,4.15,107,107,0,0,1,210,136.5"/><path class="cls-1" d="M206.1,106.72a99.5,99.5,0,0,1-.68,12,96.19,96.19,0,0,1-2.44,13c-.45,1.83-1,3.62-1.54,5.4h0a95.13,95.13,0,0,1-3.65,9.67A99.43,99.43,0,0,1,186.67,166,99,99,0,0,1,40.45,180.32,99.91,99.91,0,0,1,28,166.74a99,99,0,1,1,178.06-60"/><path class="cls-3" d="M203.71,129.5h0A99.08,99.08,0,0,1,81,202.78C37.18,190.87,7.88,150.65,7.88,106.92A99.18,99.18,0,0,1,107,7.85a99.54,99.54,0,0,1,26.16,3.51c43.81,11.92,73.11,52.13,73.11,95.87a98.29,98.29,0,0,1-2.56,22.27h0a98.29,98.29,0,0,0,2.56-22.27c0-43.74-29.3-83.95-73.11-95.87A99.12,99.12,0,0,0,10.44,84.64a98.38,98.38,0,0,0-2.56,22.28c0,43.73,29.3,84,73.11,95.86A99.08,99.08,0,0,0,203.71,129.5Z"/><path class="cls-4" d="M174.48,126.34a70.11,70.11,0,1,1-48.13-86.67,70.11,70.11,0,0,1,48.13,86.67"/><path class="cls-2" d="M148.32,161A67.86,67.86,0,1,1,161,65.83,67.86,67.86,0,0,1,148.32,161"/><polygon class="cls-4" points="131.52 177.25 133.73 182.96 139.83 183.29 135.09 187.16 136.66 193.07 131.52 189.75 126.38 193.07 127.94 187.16 123.2 183.29 129.31 182.96 131.52 177.25"/><polygon class="cls-4" points="82.63 177.25 84.84 182.96 90.94 183.29 86.2 187.16 87.77 193.07 82.63 189.75 77.49 193.07 79.06 187.16 74.31 183.29 80.42 182.96 82.63 177.25"/><polygon class="cls-4" points="107.07 180.2 110.04 187.86 118.25 188.31 111.88 193.5 113.98 201.44 107.07 196.99 100.17 201.44 102.27 193.5 95.9 188.31 104.11 187.86 107.07 180.2"/><polygon class="cls-4" points="131.52 20.72 133.73 26.42 139.83 26.76 135.09 30.62 136.66 36.53 131.52 33.22 126.38 36.53 127.94 30.62 123.2 26.76 129.31 26.42 131.52 20.72"/><polygon class="cls-4" points="82.63 20.72 84.84 26.42 90.94 26.76 86.2 30.62 87.77 36.53 82.63 33.22 77.49 36.53 79.06 30.62 74.31 26.76 80.42 26.42 82.63 20.72"/><polygon class="cls-4" points="107.07 11.64 110.04 19.3 118.25 19.76 111.88 24.95 113.98 32.89 107.07 28.44 100.17 32.89 102.27 24.95 95.9 19.76 104.11 19.3 107.07 11.64"/></g></g></svg>