<svg xmlns="http://www.w3.org/2000/svg" viewBox="0 0 188.68 78.17"><title>Trinity</title><path d="M15.67,52.18c-2,0-3.52-2-3.52-5s1.46-4.92,3.5-4.92a3.05,3.05,0,0,1,2.77,1.5l1.06-.8a4.36,4.36,0,0,0-3.8-1.91c-2.87,0-4.86,2.62-4.86,6.16s1.9,6.13,4.81,6.13a4.7,4.7,0,0,0,3.9-2l-.92-.8a3.51,3.51,0,0,1-2.94,1.57" style="fill:#4f1a48"></path><path d="M25.45,41.1c-3,0-4.95,2.57-4.95,6.16s2,6.13,4.92,6.13,5-2.57,5-6.16-2-6.13-4.93-6.13m0,11.08c-2.08,0-3.64-2-3.64-5s1.51-4.92,3.57-4.92,3.66,2,3.66,4.95-1.53,4.92-3.59,4.92" style="fill:#4f1a48"></path><polygon points="33.65 41.29 32.32 41.29 32.32 53.2 39.54 53.2 39.54 51.99 33.65 51.99 33.65 41.29" style="fill:#4f1a48"></polygon><polygon points="42.75 41.29 41.43 41.29 41.43 53.2 48.64 53.2 48.64 51.99 42.75 51.99 42.75 41.29" style="fill:#4f1a48"></polygon><polygon points="51.86 47.45 55.26 47.45 55.26 46.24 51.86 46.24 51.86 42.49 57.73 42.49 57.73 41.29 50.53 41.29 50.53 53.2 57.98 53.2 57.98 51.99 51.86 51.99 51.86 47.45" style="fill:#4f1a48"></polygon><path d="M64.63,48.52h2.15v.1c0,2.33-1.09,3.56-3.08,3.56s-3.52-2-3.52-5,1.46-4.92,3.5-4.92a3.05,3.05,0,0,1,2.77,1.5l1.06-.8a4.36,4.36,0,0,0-3.8-1.91c-2.87,0-4.86,2.62-4.86,6.16s1.9,6.13,4.81,6.13c2.52,0,4.41-1.66,4.41-4.94V47.29H64.63Z" style="fill:#4f1a48"></path><polygon points="71.22 47.45 74.62 47.45 74.62 46.24 71.22 46.24 71.22 42.49 77.09 42.49 77.09 41.29 69.89 41.29 69.89 53.2 77.34 53.2 77.34 51.99 71.22 51.99 71.22 47.45" style="fill:#4f1a48"></polygon><polygon points="84.27 41.29 82.94 41.29 82.94 53.2 90.16 53.2 90.16 51.99 84.27 51.99 84.27 41.29" style="fill:#4f1a48"></polygon><path d="M96.06,41.1c-3,0-5,2.57-5,6.16s2,6.13,4.92,6.13,5-2.57,5-6.16-2-6.13-4.93-6.13m0,11.08c-2.08,0-3.64-2-3.64-5S94,42.31,96,42.31s3.66,2,3.66,4.95-1.53,4.92-3.59,4.92" style="fill:#4f1a48"></path><path d="M110.24,50.27v.82c-.16-.31-.6-1.09-.86-1.5l-5.15-8.3h-1.3V53.2h1.28V43.55c.15.31.6,1.09.85,1.5l5.21,8.15h1.24V41.29h-1.27Z" style="fill:#4f1a48"></path><path d="M117.11,41.29H114V53.2h2.91c3.18,0,5.67-1.72,5.67-6,0-4.09-2.3-5.87-5.43-5.87M117,52h-1.75v-9.5H117c2.74,0,4.2,1.67,4.2,4.72,0,3.42-1.6,4.78-4.17,4.78" style="fill:#4f1a48"></path><path d="M128.92,41.1c-3,0-5,2.57-5,6.16s2,6.13,4.92,6.13,5-2.57,5-6.16-2-6.13-4.93-6.13m0,11.08c-2.07,0-3.64-2-3.64-5s1.52-4.92,3.57-4.92,3.66,2,3.66,4.95-1.53,4.92-3.59,4.92" style="fill:#4f1a48"></path><path d="M143.09,50.27v.82c-.15-.31-.6-1.09-.85-1.5l-5.16-8.3h-1.29V53.2h1.28V43.55c.15.31.59,1.09.85,1.5l5.2,8.15h1.24V41.29h-1.27Z" style="fill:#4f1a48"></path><path d="M62.67,0V32.84a3,3,0,0,0,3.25,2.81,2.93,2.93,0,0,0,3.22-2.81V0H62.67Z" style="fill:#4f1a48"></path><path d="M107.42,0h-6.48V24.55L82.1,0H76V32.82a3.27,3.27,0,0,0,6.47,0v-22c2.09,2.72,18.79,24.55,18.79,24.55h6.13Z" style="fill:#4f1a48"></path><path d="M117.49,35.63a2.94,2.94,0,0,0,3.23-2.81V0h-6.48V32.82a3,3,0,0,0,3.25,2.81" style="fill:#4f1a48"></path><path d="M180.82,0l-11,15.21L158.72,0H125.17V6.07h12.56V32.82a3.27,3.27,0,0,0,6.48,0V6.07h11.18l11.14,15.09V32.82a3.27,3.27,0,0,0,6.48,0V21.16c-.59.79-.38.5,15.67-21.16Z" style="fill:#4f1a48"></path><path d="M55.28,35.15a3.1,3.1,0,0,0,1.49-2,2.57,2.57,0,0,0-.52-2.05h0c-.31-.43-1.58-2.1-7.64-10,5.06-1.17,9-5.53,9-10.58C57.55,5,52.86.46,46.91,0H0V6.07H12.56V32.82a3,3,0,0,0,3.25,2.81A2.94,2.94,0,0,0,19,32.82V6.07H45.91c3.08,0,5.32,1.86,5.32,4.42a5.05,5.05,0,0,1-5.32,4.89H29.75a3.13,3.13,0,0,0-3.23,3V32.77a3.19,3.19,0,0,0,3.24,2.89,3.14,3.14,0,0,0,3.24-3V21.38h7.93L51,34.56a3.22,3.22,0,0,0,4.31.59" style="fill:#4f1a48"></path><line x1="10.82" y1="59.76" x2="186.93" y2="59.76" style="fill:none;stroke:#4f1a48;stroke-width:0.75px"></line><text transform="translate(10.82 75.09)" style="font-size:12.306400299072266px;fill:#4f1a48;font-family:Interstate-Light, Interstate Light;font-weight:300"><tspan style="letter-spacing:-0.041026035252409374em">R</tspan><tspan x="6.12" y="0" style="letter-spacing:-0.04197828365285214em">e</tspan><tspan x="11.76" y="0" style="letter-spacing:-0.04094668121903914em">gis</tspan><tspan x="24.88" y="0" style="letter-spacing:-0.04197828365285214em">ter</tspan><tspan x="37.6" y="0" style="letter-spacing:-0.041026035252409374em">ed</tspan><tspan x="49.69" y="0" style="letter-spacing:-0.04197828365285214em"> </tspan><tspan x="51.78" y="0" style="letter-spacing:-0.041026035252409374em">Exam Cent</tspan><tspan x="102.01" y="0" style="letter-spacing:-0.04205763768622237em">r</tspan><tspan x="105.51" y="0" style="letter-spacing:-0.04094668121903914em">e </tspan><tspan x="113.28" y="0" style="letter-spacing:-0.04197828365285214em">69567</tspan><tspan x="142.26" y="0"> </tspan></text></svg>